<svg width="174" height="57" viewBox="0 0 174 57" fill="none" xmlns="http://www.w3.org/2000/svg">
<g clip-path="url(#clip0_693_33900)">
<path d="M130.775 17.2731C131.077 17.2932 131.107 17.3736 131.107 17.4541V22.2116C131.107 22.3122 131.077 22.3726 130.775 22.3927V22.5134H133.29V22.3927C132.988 22.3726 132.948 22.3122 132.948 22.2116V17.4541C132.948 17.3736 132.988 17.2932 133.29 17.2731V17.1523H130.775V17.2731Z" fill="white"/>
<path d="M141.999 17.1657H135.885V17.2865C136.206 17.3065 136.236 17.387 136.236 17.4675V22.2249C136.236 22.3256 136.206 22.3859 135.885 22.406V22.5266H141.999C142.141 22.5266 142.181 22.577 142.221 22.748H142.362V20.9677H142.221C142.181 21.2191 142.141 21.2794 141.999 21.2794H138.077V20.3341H140.35C140.602 20.3341 140.682 20.4447 140.723 20.5654H140.863V18.9762H140.723C140.682 19.1069 140.602 19.2075 140.35 19.2075H138.077V18.3627H141.999C142.141 18.3627 142.181 18.4029 142.221 18.6442H142.362V16.874H142.221C142.181 17.1054 142.141 17.1657 141.999 17.1657Z" fill="white"/>
<path d="M150.962 21.2762H146.727V17.4541C146.727 17.3736 146.767 17.2932 147.08 17.2731V17.1523H144.555V17.2731C144.857 17.3033 144.897 17.3736 144.897 17.4541V22.2116C144.897 22.3122 144.857 22.3726 144.555 22.3927V22.5134H150.962C151.083 22.5134 151.144 22.5636 151.183 22.7849H151.334V20.9946H151.183C151.144 21.2259 151.083 21.2762 150.962 21.2762Z" fill="white"/>
<path d="M157.269 17.1631H153.205V17.2838C153.507 17.3039 153.538 17.3743 153.538 17.4648V22.2223C153.538 22.3229 153.497 22.3832 153.205 22.4033V22.524H157.128C159.402 22.524 160.568 21.2467 160.568 19.8385C160.568 18.3198 159.512 17.1631 157.269 17.1631ZM156.937 21.317H155.368V18.36H156.937C158.224 18.36 158.747 18.9635 158.747 19.8385C158.747 20.7035 158.224 21.317 156.937 21.317Z" fill="white"/>
<path d="M164.048 18.5898C164.048 18.3585 164.419 18.107 165.476 18.107C166.623 18.107 168.031 18.3987 168.031 18.6501V18.7608L168.181 18.8211L169.027 17.4029L168.886 17.3526C168.805 17.4331 168.704 17.5135 168.554 17.5135C168.222 17.5135 167.015 17.0811 165.324 17.0811C163.524 17.0811 162.358 17.7851 162.358 18.811C162.358 20.7724 167.407 19.9477 167.407 20.6919C167.407 21.1345 166.844 21.3859 165.616 21.3859C164.339 21.3859 163.022 20.9232 163.022 20.6517L163.051 20.4304L162.941 20.3802L162.025 22.1906L162.177 22.2207L162.428 22.09C162.7 22.09 163.605 22.5627 165.657 22.5627C168.322 22.5627 169.107 21.5972 169.107 20.7221C169.117 18.3886 164.048 19.505 164.048 18.5898Z" fill="white"/>
<path d="M104.464 18.1201H102.895V21.0771H104.464C105.751 21.0771 106.294 20.4636 106.294 19.5986C106.294 18.7336 105.761 18.1201 104.464 18.1201Z" fill="white"/>
<path d="M86.1484 18.0986C85.0822 18.0986 84.1367 18.6418 84.1367 19.5973C84.1367 20.563 85.0822 21.096 86.1484 21.096C87.2146 21.096 88.1599 20.563 88.1599 19.5973C88.1599 18.6418 87.2146 18.0986 86.1484 18.0986Z" fill="white"/>
<path d="M127.93 14.0763H118.043V14.2775C118.525 14.3077 118.586 14.4183 118.586 14.5692V22.0524C118.586 22.1933 118.525 22.314 118.043 22.3441V22.5352H122.097V22.3441C121.613 22.314 121.553 22.2033 121.553 22.0524V19.3569H125.838C126.049 19.3569 126.13 19.4273 126.18 19.7894H126.422V17.0937H126.18C126.13 17.3854 126.059 17.4659 125.838 17.4659H121.553V16.0377H127.93C128.142 16.0377 128.222 16.1182 128.272 16.43H128.513V13.6338H128.272C128.222 13.9958 128.142 14.0763 127.93 14.0763Z" fill="white"/>
<path d="M113.887 10.8652H61.7559V24.8058H113.877V12.2332H173.27V10.8652H113.887ZM80.0315 21.1647C78.2814 21.9694 76.1893 22.3717 73.8155 22.3717C70.5869 22.3717 67.5494 20.9635 67.5494 18.0568C67.5494 15.15 70.597 13.7419 73.8155 13.7419C75.0929 13.7419 75.6462 13.8223 76.9637 14.1342C77.5974 14.2749 78.2109 14.5465 78.3618 14.5465C78.4926 14.5465 78.5831 14.4761 78.6434 14.4157L78.8748 14.4761L77.6276 16.5984L77.3963 16.4877L77.4364 16.3067C77.4364 16.0049 75.5254 15.5422 73.9162 15.5422C72.0856 15.5422 70.4058 16.3671 70.4058 18.097C70.4058 19.827 72.4275 20.5813 74.1072 20.5813C75.1734 20.5813 76.0184 20.4707 76.8129 20.2695V19.2135H74.3285C74.1072 19.2135 74.0469 19.3443 74.0368 19.5453H73.8055V17.2924H74.0368C74.0469 17.4936 74.1072 17.5841 74.3285 17.5841H80.0113V17.7751C79.78 17.7953 79.7096 17.8656 79.7096 18.0468V20.7122C79.7096 20.853 79.7498 20.9837 79.941 20.9837H80.0415V21.1647H80.0315ZM86.1468 22.3415C84.0647 22.3415 82.3147 21.386 82.3147 19.5957C82.3147 17.8154 84.0647 16.8498 86.1468 16.8498C88.2288 16.8498 89.969 17.8154 89.969 19.5957C89.969 21.386 88.2288 22.3415 86.1468 22.3415ZM98.82 22.5427H98.6692C98.629 22.3315 98.5686 22.2812 98.4478 22.2812H92.0409V22.1605C92.3427 22.1404 92.3727 22.07 92.3727 21.9795V17.2219C92.3727 17.1314 92.3427 17.0611 92.0409 17.0409V16.9202H94.5654V17.0409C94.2637 17.0611 94.2234 17.1314 94.2234 17.2219V21.044H98.4378C98.5585 21.044 98.6188 20.9937 98.6591 20.7523H98.81V22.5427H98.82ZM104.654 22.2812H100.721V22.1504C101.023 22.1303 101.063 22.0599 101.063 21.9694V17.2119C101.063 17.1214 101.023 17.0509 100.721 17.0309V16.9202H104.795C107.038 16.9202 108.104 18.0769 108.104 19.5957C108.094 20.9938 106.927 22.2812 104.654 22.2812Z" fill="white"/>
<path d="M28.8467 0C23.1035 0 17.7928 1.83057 13.4477 4.94859C5.4012 9.7262 0 18.527 0 28.5952C0 43.7528 12.2407 56.0438 27.338 56.0438C39.7496 56.0438 50.2303 47.7257 53.5595 36.35C54.7362 33.3426 55.39 30.0737 55.39 26.644C55.3799 11.9189 43.4913 0 28.8467 0ZM28.8265 52.3525C14.6848 52.3525 3.2186 40.8863 3.2186 26.7545C3.2186 12.6229 14.6848 1.14662 28.8265 1.14662C42.9683 1.14662 54.4345 12.6129 54.4345 26.7445C54.4345 40.8761 42.9783 52.3525 28.8265 52.3525Z" fill="white"/>
<path d="M42.8773 16.1444C42.8773 16.1242 43.0685 15.5409 42.9678 13.6701C42.8371 11.5478 41.6 10.6426 39.7392 10.6426C37.7679 10.6426 36.581 13.3281 35.2734 14.686C35.2734 14.686 35.7864 15.1185 36.0177 15.3297C36.0277 15.3196 38.9346 14.2233 40.4433 14.4848C41.1273 14.5955 42.2436 15.2693 42.8773 16.1444Z" fill="white"/>
<path d="M37.9399 18.8417L37.8594 18.7812V18.7914C38.2516 20.4912 41.2792 21.6378 42.647 23.3175C42.647 23.2873 42.9287 21.8591 42.6069 20.8432C42.0537 19.1534 39.1468 19.6564 37.9399 18.8417Z" fill="white"/>
<path d="M38.9753 25.4795C38.9753 25.4795 38.6938 26.787 38.7742 27.9236C38.915 30.0961 40.816 30.2068 42.5962 32.7616C42.5962 32.7315 42.8779 31.3635 42.2242 29.3619C41.7312 27.8934 38.9753 25.4795 38.9753 25.4795Z" fill="white"/>
<path d="M18.6777 22.6107L20.7899 29.1183C21.3934 28.0723 23.6968 26.976 24.9842 26.8351L26 22.3895L25.296 22.9025L26 22.3795C25.8492 22.1682 25.6782 22.0475 25.5072 21.9972C24.1493 22.5805 21.6651 20.1968 21.6651 20.1968L22.007 19.7643L27.4384 20.5187L26.0605 26.8351H27.9312L28.6152 27.9416H28.766L29.4199 26.8351H31.2906L29.9227 20.5187L35.344 19.7643L35.7062 20.1968C35.7062 20.1968 33.2218 22.5805 31.8438 21.9972C31.6728 22.0475 31.5119 22.1682 31.351 22.3795L32.387 26.8351C33.6745 26.9659 35.9777 28.0723 36.5812 29.1183L38.6934 22.6107L38.0094 22.8422L36.37 27.8913L37.2049 25.3365L38.0094 22.8422L38.6934 22.6107L34.3885 15.9121H22.9625L18.6777 22.6107Z" fill="white"/>
<path d="M31.5615 14.5639L31.5312 14.5741C34.8202 14.9161 35.7859 12.6329 36.9324 11.2549C36.9324 11.2549 35.8764 11.2951 34.78 11.2951C33.6837 11.2951 33.1807 12.311 33.1807 12.311C33.1807 12.311 32.1247 14.1114 31.5615 14.5639Z" fill="white"/>
<path d="M27.2276 31.4521V30.2048L27.8311 29.4706L24.8438 28.9677L24.7432 28.0322C24.7432 28.0322 21.5246 29.1185 21.5648 30.5266C21.5648 32.4276 24.0995 34.1073 24.0995 34.1073L27.8411 31.7136V29.4706L27.2376 30.2048L27.2276 31.4521Z" fill="white"/>
<path d="M30.2642 31.4521L29.4395 31.7136L33.1811 34.1073C33.1811 34.1073 35.7156 32.4276 35.7156 30.5266C35.7458 29.1185 32.5374 28.0322 32.5374 28.0322L32.4367 28.9677L29.4495 29.4706V31.7136L30.2642 31.4521Z" fill="white"/>
<path d="M63.1957 47.7222H61.6094L66.1973 35.2275H67.7591L72.347 47.7222H70.7608L67.0271 37.2043H66.9295L63.1957 47.7222ZM63.7813 42.8416H70.1751V44.1837H63.7813V42.8416Z" fill="#6E87A7"/>
<path d="M86.7875 35.2275H88.3005V43.5004C88.3005 44.3546 88.0992 45.1172 87.6965 45.7883C87.298 46.4553 86.7346 46.982 86.0065 47.3684C85.2786 47.7507 84.4244 47.9419 83.4442 47.9419C82.4639 47.9419 81.6099 47.7507 80.8818 47.3684C80.1537 46.982 79.5884 46.4553 79.1857 45.7883C78.7872 45.1172 78.5879 44.3546 78.5879 43.5004V35.2275H80.1008V43.3785C80.1008 43.9884 80.2351 44.5315 80.5036 45.0073C80.772 45.4791 81.1542 45.8513 81.6505 46.1238C82.1508 46.3922 82.7487 46.5265 83.4442 46.5265C84.1396 46.5265 84.7375 46.3922 85.2379 46.1238C85.7381 45.8513 86.1204 45.4791 86.3849 45.0073C86.6532 44.5315 86.7875 43.9884 86.7875 43.3785Z" fill="#6E87A7"/>
<path d="M95.6172 47.7222V35.2275H99.8391C100.815 35.2275 101.616 35.3943 102.243 35.7279C102.869 36.0573 103.333 36.5108 103.634 37.0884C103.935 37.6659 104.085 38.3228 104.085 39.059C104.085 39.7952 103.935 40.4479 103.634 41.0173C103.333 41.5868 102.871 42.0341 102.249 42.3596C101.627 42.6808 100.832 42.8416 99.8635 42.8416H96.4469V41.4749H99.8147C100.482 41.4749 101.019 41.3773 101.425 41.182C101.836 40.9869 102.133 40.7103 102.316 40.3524C102.503 39.9903 102.597 39.5592 102.597 39.059C102.597 38.5587 102.503 38.1214 102.316 37.7473C102.129 37.373 101.83 37.0843 101.419 36.8809C101.008 36.6736 100.465 36.5698 99.7902 36.5698H97.1302V47.7222H95.6172ZM101.498 42.1094L104.573 47.7222H102.816L99.7902 42.1094H101.498Z" fill="#6E87A7"/>
<path d="M110.902 47.7222V35.2275H118.443V36.5698H112.415V40.7916H118.053V42.1339H112.415V46.38H118.541V47.7222H110.902Z" fill="#6E87A7"/>
<path d="M125.465 47.7222V35.2275H126.979V46.38H132.787V47.7222H125.465Z" fill="#6E87A7"/>
<path d="M140.937 35.2275V47.7222H139.424V35.2275H140.937Z" fill="#C8A064"/>
<path d="M148.778 47.7222H147.191L151.78 35.2275H153.341L157.93 47.7222H156.343L152.61 37.2043H152.512L148.778 47.7222ZM149.363 42.8416H155.757V44.1837H149.363V42.8416Z" fill="#C8A064"/>
</g>
<defs>
<clipPath id="clip0_693_33900">
<rect width="173.271" height="57" fill="white"/>
</clipPath>
</defs>
</svg>
