<svg width="18" height="16" viewBox="0 0 18 16" fill="none" xmlns="http://www.w3.org/2000/svg">
<path d="M11.5801 2.32969C11.457 2.37617 11.375 2.49375 11.375 2.625C11.375 2.75625 11.457 2.87383 11.5801 2.92031L13.125 3.5L13.7047 5.04492C13.7512 5.16797 13.8687 5.25 14 5.25C14.1313 5.25 14.2488 5.16797 14.2953 5.04492L14.875 3.5L16.4199 2.92031C16.543 2.87383 16.625 2.75625 16.625 2.625C16.625 2.49375 16.543 2.37617 16.4199 2.32969L14.875 1.75L14.2953 0.205078C14.2488 0.0820312 14.1313 0 14 0C13.8687 0 13.7512 0.0820312 13.7047 0.205078L13.125 1.75L11.5801 2.32969ZM6.52148 2.8793C6.45039 2.72344 6.29453 2.625 6.125 2.625C5.95547 2.625 5.79961 2.72344 5.72852 2.8793L4.27656 6.02383L1.13203 7.47578C0.973437 7.54961 0.875 7.70547 0.875 7.875C0.875 8.04453 0.973438 8.20039 1.1293 8.27148L4.27383 9.72344L5.72578 12.868C5.79688 13.0238 5.95273 13.1223 6.12227 13.1223C6.2918 13.1223 6.44766 13.0238 6.51875 12.868L7.9707 9.72344L11.1152 8.27148C11.2711 8.20039 11.3695 8.04453 11.3695 7.875C11.3695 7.70547 11.2711 7.54961 11.1152 7.47852L7.9707 6.02656L6.51875 2.88203L6.52148 2.8793ZM12.25 12.25L10.7051 12.8297C10.582 12.8762 10.5 12.9937 10.5 13.125C10.5 13.2563 10.582 13.3738 10.7051 13.4203L12.25 14L12.8297 15.5449C12.8762 15.668 12.9937 15.75 13.125 15.75C13.2563 15.75 13.3738 15.668 13.4203 15.5449L14 14L15.5449 13.4203C15.668 13.3738 15.75 13.2563 15.75 13.125C15.75 12.9937 15.668 12.8762 15.5449 12.8297L14 12.25L13.4203 10.7051C13.3738 10.582 13.2563 10.5 13.125 10.5C12.9937 10.5 12.8762 10.582 12.8297 10.7051L12.25 12.25Z" fill="#001E39"/>
</svg>
