<svg width="25" height="20" viewBox="0 0 25 20" fill="none" xmlns="http://www.w3.org/2000/svg">
<path d="M17.1641 1.25H17.5C18.8789 1.25 20 2.37109 20 3.75V17.5C20 18.8789 18.8789 20 17.5 20H7.5C6.12109 20 5 18.8789 5 17.5V3.75C5 2.37109 6.12109 1.25 7.5 1.25H7.83594C8.26562 0.503906 9.07422 0 10 0H15C15.9258 0 16.7344 0.503906 17.1641 1.25ZM14.6875 4.375C15.207 4.375 15.625 3.95703 15.625 3.4375C15.625 2.91797 15.207 2.5 14.6875 2.5H10.3125C9.79297 2.5 9.375 2.91797 9.375 3.4375C9.375 3.95703 9.79297 4.375 10.3125 4.375H14.6875ZM10 10C10 9.66848 9.8683 9.35054 9.63388 9.11612C9.39946 8.8817 9.08152 8.75 8.75 8.75C8.41848 8.75 8.10054 8.8817 7.86612 9.11612C7.6317 9.35054 7.5 9.66848 7.5 10C7.5 10.3315 7.6317 10.6495 7.86612 10.8839C8.10054 11.1183 8.41848 11.25 8.75 11.25C9.08152 11.25 9.39946 11.1183 9.63388 10.8839C9.8683 10.6495 10 10.3315 10 10ZM11.25 10C11.25 10.5195 11.668 10.9375 12.1875 10.9375H16.5625C17.082 10.9375 17.5 10.5195 17.5 10C17.5 9.48047 17.082 9.0625 16.5625 9.0625H12.1875C11.668 9.0625 11.25 9.48047 11.25 10ZM11.25 15C11.25 15.5195 11.668 15.9375 12.1875 15.9375H16.5625C17.082 15.9375 17.5 15.5195 17.5 15C17.5 14.4805 17.082 14.0625 16.5625 14.0625H12.1875C11.668 14.0625 11.25 14.4805 11.25 15ZM8.75 16.25C9.08152 16.25 9.39946 16.1183 9.63388 15.8839C9.8683 15.6495 10 15.3315 10 15C10 14.6685 9.8683 14.3505 9.63388 14.1161C9.39946 13.8817 9.08152 13.75 8.75 13.75C8.41848 13.75 8.10054 13.8817 7.86612 14.1161C7.6317 14.3505 7.5 14.6685 7.5 15C7.5 15.3315 7.6317 15.6495 7.86612 15.8839C8.10054 16.1183 8.41848 16.25 8.75 16.25Z" fill="#646464"/>
</svg>
