<svg width="28" height="22" viewBox="0 0 28 22" fill="none" xmlns="http://www.w3.org/2000/svg">
<path d="M10.3125 1.03125C10.3125 0.459766 9.85273 0 9.28125 0C8.70977 0 8.25 0.459766 8.25 1.03125V2.75C6.7332 2.75 5.5 3.9832 5.5 5.5H3.78125C3.20977 5.5 2.75 5.95977 2.75 6.53125C2.75 7.10273 3.20977 7.5625 3.78125 7.5625H5.5V9.96875H3.78125C3.20977 9.96875 2.75 10.4285 2.75 11C2.75 11.5715 3.20977 12.0312 3.78125 12.0312H5.5V14.4375H3.78125C3.20977 14.4375 2.75 14.8973 2.75 15.4688C2.75 16.0402 3.20977 16.5 3.78125 16.5H5.5C5.5 18.0168 6.7332 19.25 8.25 19.25V20.9688C8.25 21.5402 8.70977 22 9.28125 22C9.85273 22 10.3125 21.5402 10.3125 20.9688V19.25H12.7188V20.9688C12.7188 21.5402 13.1785 22 13.75 22C14.3215 22 14.7812 21.5402 14.7812 20.9688V19.25H17.1875V20.9688C17.1875 21.5402 17.6473 22 18.2188 22C18.7902 22 19.25 21.5402 19.25 20.9688V19.25C20.7668 19.25 22 18.0168 22 16.5H23.7188C24.2902 16.5 24.75 16.0402 24.75 15.4688C24.75 14.8973 24.2902 14.4375 23.7188 14.4375H22V12.0312H23.7188C24.2902 12.0312 24.75 11.5715 24.75 11C24.75 10.4285 24.2902 9.96875 23.7188 9.96875H22V7.5625H23.7188C24.2902 7.5625 24.75 7.10273 24.75 6.53125C24.75 5.95977 24.2902 5.5 23.7188 5.5H22C22 3.9832 20.7668 2.75 19.25 2.75V1.03125C19.25 0.459766 18.7902 0 18.2188 0C17.6473 0 17.1875 0.459766 17.1875 1.03125V2.75H14.7812V1.03125C14.7812 0.459766 14.3215 0 13.75 0C13.1785 0 12.7188 0.459766 12.7188 1.03125V2.75H10.3125V1.03125ZM17.1875 7.39062C17.6602 7.39062 18.0469 7.77734 18.0469 8.25V13.75C18.0469 14.2227 17.6602 14.6094 17.1875 14.6094C16.7148 14.6094 16.3281 14.2227 16.3281 13.75V8.25C16.3281 7.77734 16.7148 7.39062 17.1875 7.39062ZM12.4738 7.90625L14.8801 13.4062C15.0691 13.8402 14.8715 14.3473 14.4375 14.5363C14.0035 14.7254 13.4965 14.5277 13.3074 14.0938L13.0797 13.5781H10.2953L10.0676 14.0938C9.87852 14.5277 9.37148 14.7254 8.9375 14.5363C8.50352 14.3473 8.30586 13.8402 8.49492 13.4062L10.9012 7.90625C11.0387 7.59258 11.348 7.39062 11.6875 7.39062C12.027 7.39062 12.3363 7.59258 12.4738 7.90625ZM11.6875 10.3941L11.0473 11.8594H12.3277L11.6875 10.3941Z" fill="white"/>
</svg>
