<svg width="20" height="16" viewBox="0 0 20 16" fill="none" xmlns="http://www.w3.org/2000/svg">
<path d="M10 0.003125C9.58437 0.003125 9.25 0.3375 9.25 0.753125V1.05625C6.70625 1.41875 4.75 3.60938 4.75 6.25313V6.70625C4.75 7.88438 4.4375 9.04062 3.84375 10.0594L3.15937 11.2281C3.05625 11.4094 3 11.6125 3 11.8219C3 12.475 3.52812 13.0031 4.18125 13.0031H15.8188C16.4719 13.0031 17 12.475 17 11.8219C17 11.6125 16.9437 11.4063 16.8406 11.2281L16.1562 10.0563C15.5625 9.0375 15.25 7.88125 15.25 6.70312V6.25C15.25 3.60625 13.2937 1.41562 10.75 1.05312V0.75C10.75 0.334375 10.4156 0 10 0V0.003125ZM15.2625 11.5031H4.73438L5.1375 10.8125C5.86562 9.56563 6.25 8.14688 6.25 6.70625V6.25313C6.25 4.18125 7.92812 2.50312 10 2.50312C12.0719 2.50312 13.75 4.18125 13.75 6.25313V6.70625C13.75 8.15 14.1344 9.56563 14.8594 10.8125L15.2625 11.5031ZM7.87813 14.5031C8.1875 15.3781 9.02187 16.0031 10 16.0031C10.9781 16.0031 11.8125 15.3781 12.1219 14.5031H7.87813Z" fill="white" fill-opacity="0.8"/>
</svg>
