<svg width="15" height="12" viewBox="0 0 15 12" fill="none" xmlns="http://www.w3.org/2000/svg">
<path d="M0.5 0.782609C0.5 0.348913 0.834375 0 1.25 0H13.75C14.1656 0 14.5 0.348913 14.5 0.782609C14.5 1.2163 14.1656 1.56522 13.75 1.56522H1.25C0.834375 1.56522 0.5 1.2163 0.5 0.782609ZM2.5 6C2.5 5.5663 2.83438 5.21739 3.25 5.21739H11.75C12.1656 5.21739 12.5 5.5663 12.5 6C12.5 6.4337 12.1656 6.78261 11.75 6.78261H3.25C2.83438 6.78261 2.5 6.4337 2.5 6ZM9.5 11.2174C9.5 11.6511 9.16563 12 8.75 12H6.25C5.83438 12 5.5 11.6511 5.5 11.2174C5.5 10.7837 5.83438 10.4348 6.25 10.4348H8.75C9.16563 10.4348 9.5 10.7837 9.5 11.2174Z" fill="#131313"/>
</svg>
