<svg width="13" height="10" viewBox="0 0 13 10" fill="none" xmlns="http://www.w3.org/2000/svg">
<path d="M6.24806 0C6.3379 0 6.42774 0.0195313 6.50977 0.0566406L10.1895 1.61719C10.6191 1.79883 10.9395 2.22266 10.9375 2.73438C10.9277 4.67188 10.1309 8.2168 6.76563 9.82812C6.43946 9.98438 6.06056 9.98438 5.73438 9.82812C2.3672 8.2168 1.57227 4.67188 1.56251 2.73438C1.56056 2.22266 1.88087 1.79883 2.31056 1.61719L5.98829 0.0566406C6.07032 0.0195313 6.15821 0 6.24806 0ZM6.24806 1.30469V8.68945C8.94337 7.38477 9.66798 4.49414 9.68556 2.76367L6.24806 1.30664V1.30469Z" fill="#C8A064"/>
</svg>
