<svg width="19" height="15" viewBox="0 0 19 15" fill="none" xmlns="http://www.w3.org/2000/svg">
<path d="M10.3125 1.875C10.3125 1.35645 9.89355 0.9375 9.375 0.9375C8.85645 0.9375 8.4375 1.35645 8.4375 1.875V6.5625H3.75C3.23145 6.5625 2.8125 6.98145 2.8125 7.5C2.8125 8.01855 3.23145 8.4375 3.75 8.4375H8.4375V13.125C8.4375 13.6436 8.85645 14.0625 9.375 14.0625C9.89355 14.0625 10.3125 13.6436 10.3125 13.125V8.4375H15C15.5186 8.4375 15.9375 8.01855 15.9375 7.5C15.9375 6.98145 15.5186 6.5625 15 6.5625H10.3125V1.875Z" fill="white"/>
</svg>
