<svg width="12" height="9" viewBox="0 0 12 9" fill="none" xmlns="http://www.w3.org/2000/svg">
<path d="M8.4375 3.65625C8.4375 4.46309 8.17559 5.2084 7.73438 5.81309L9.95977 8.04023C10.1795 8.25996 10.1795 8.6168 9.95977 8.83652C9.74004 9.05625 9.3832 9.05625 9.16348 8.83652L6.93809 6.60938C6.3334 7.05059 5.58809 7.3125 4.78125 7.3125C2.76152 7.3125 1.125 5.67598 1.125 3.65625C1.125 1.63652 2.76152 0 4.78125 0C6.80098 0 8.4375 1.63652 8.4375 3.65625ZM4.78125 6.1875C5.11366 6.1875 5.44281 6.12203 5.74992 5.99482C6.05702 5.86761 6.33607 5.68116 6.57111 5.44611C6.80616 5.21107 6.99261 4.93202 7.11982 4.62492C7.24703 4.31781 7.3125 3.98866 7.3125 3.65625C7.3125 3.32384 7.24703 2.99469 7.11982 2.68758C6.99261 2.38048 6.80616 2.10143 6.57111 1.86639C6.33607 1.63134 6.05702 1.44489 5.74992 1.31768C5.44281 1.19047 5.11366 1.125 4.78125 1.125C4.44884 1.125 4.11969 1.19047 3.81258 1.31768C3.50548 1.44489 3.22643 1.63134 2.99139 1.86639C2.75634 2.10143 2.56989 2.38048 2.44268 2.68758C2.31547 2.99469 2.25 3.32384 2.25 3.65625C2.25 3.98866 2.31547 4.31781 2.44268 4.62492C2.56989 4.93202 2.75634 5.21107 2.99139 5.44611C3.22643 5.68116 3.50548 5.86761 3.81258 5.99482C4.11969 6.12203 4.44884 6.1875 4.78125 6.1875Z" fill="#0D3862"/>
</svg>
