<svg width="137" height="44" viewBox="0 0 137 44" fill="none" xmlns="http://www.w3.org/2000/svg">
<path d="M102.672 13.1485C102.909 13.1643 102.932 13.2274 102.932 13.2906V17.0257C102.932 17.1047 102.909 17.1521 102.672 17.1679V17.2626H104.646V17.1679C104.409 17.1521 104.378 17.1047 104.378 17.0257V13.2906C104.378 13.2274 104.409 13.1643 104.646 13.1485V13.0537H102.672V13.1485Z" fill="#24588B"/>
<path d="M111.485 13.063H106.684V13.1577C106.936 13.1735 106.96 13.2367 106.96 13.2999V17.035C106.96 17.114 106.936 17.1613 106.684 17.1771V17.2719H111.485C111.595 17.2719 111.627 17.3114 111.658 17.4456H111.769V16.0479H111.658C111.627 16.2453 111.595 16.2927 111.485 16.2927H108.405V15.5504H110.19C110.387 15.5504 110.45 15.6373 110.482 15.732H110.592V14.4844H110.482C110.45 14.587 110.387 14.666 110.19 14.666H108.405V14.0027H111.485C111.595 14.0027 111.627 14.0343 111.658 14.2238H111.769V12.834H111.658C111.627 13.0156 111.595 13.063 111.485 13.063Z" fill="#24588B"/>
<path d="M118.522 16.2913H115.198V13.2906C115.198 13.2274 115.229 13.1643 115.474 13.1485V13.0537H113.492V13.1485C113.729 13.1722 113.761 13.2274 113.761 13.2906V17.0257C113.761 17.1047 113.729 17.1521 113.492 17.1679V17.2626H118.522C118.617 17.2626 118.664 17.3021 118.696 17.4758H118.815V16.0702H118.696C118.664 16.2518 118.617 16.2913 118.522 16.2913Z" fill="#24588B"/>
<path d="M123.471 13.0625H120.281V13.1573C120.518 13.1731 120.542 13.2283 120.542 13.2994V17.0345C120.542 17.1135 120.51 17.1608 120.281 17.1766V17.2714H123.361C125.146 17.2714 126.062 16.2685 126.062 15.163C126.062 13.9706 125.232 13.0625 123.471 13.0625ZM123.211 16.3238H121.979V14.0022H123.211C124.222 14.0022 124.632 14.476 124.632 15.163C124.632 15.8421 124.222 16.3238 123.211 16.3238Z" fill="#24588B"/>
<path d="M128.794 14.1845C128.794 14.0029 129.086 13.8055 129.916 13.8055C130.816 13.8055 131.921 14.0345 131.921 14.2319V14.3187L132.04 14.3661L132.703 13.2527L132.593 13.2132C132.529 13.2764 132.45 13.3396 132.332 13.3396C132.071 13.3396 131.124 13 129.797 13C128.384 13 127.468 13.5528 127.468 14.3582C127.468 15.8981 131.432 15.2505 131.432 15.8349C131.432 16.1823 130.99 16.3798 130.026 16.3798C129.023 16.3798 127.989 16.0165 127.989 15.8033L128.012 15.6296L127.926 15.5901L127.207 17.0115L127.325 17.0352L127.523 16.9325C127.736 16.9325 128.447 17.3037 130.058 17.3037C132.15 17.3037 132.766 16.5456 132.766 15.8586C132.774 14.0266 128.794 14.9031 128.794 14.1845Z" fill="#24588B"/>
<path d="M82.0151 13.8125H80.7832V16.1341H82.0151C83.0258 16.1341 83.4523 15.6524 83.4523 14.9733C83.4523 14.2942 83.0337 13.8125 82.0151 13.8125Z" fill="#24588B"/>
<path d="M67.636 13.7979C66.7989 13.7979 66.0566 14.2243 66.0566 14.9744C66.0566 15.7325 66.7989 16.151 67.636 16.151C68.473 16.151 69.2153 15.7325 69.2153 14.9744C69.2153 14.2243 68.473 13.7979 67.636 13.7979Z" fill="#24588B"/>
<path d="M100.438 10.6365H92.6758V10.7944C93.0548 10.8181 93.1022 10.905 93.1022 11.0234V16.8985C93.1022 17.0091 93.0548 17.1039 92.6758 17.1275V17.2776H95.8581V17.1275C95.4791 17.1039 95.4317 17.017 95.4317 16.8985V14.7822H98.7957C98.9615 14.7822 99.0247 14.8375 99.0642 15.1218H99.2537V13.0055H99.0642C99.0247 13.2345 98.9694 13.2977 98.7957 13.2977H95.4317V12.1764H100.438C100.604 12.1764 100.667 12.2395 100.707 12.4843H100.896V10.2891H100.707C100.667 10.5733 100.604 10.6365 100.438 10.6365Z" fill="#24588B"/>
<path d="M89.4145 8.11914H48.4863V19.0639H89.4066V9.19308H136.036V8.11914H89.4145ZM62.8345 16.2053C61.4605 16.837 59.818 17.1529 57.9544 17.1529C55.4196 17.1529 53.0348 16.0474 53.0348 13.7652C53.0348 11.4831 55.4275 10.3776 57.9544 10.3776C58.9573 10.3776 59.3916 10.4407 60.426 10.6855C60.9235 10.7961 61.4052 11.0093 61.5237 11.0093C61.6263 11.0093 61.6974 10.954 61.7448 10.9067L61.9264 10.954L60.9472 12.6202L60.7656 12.5334L60.7972 12.3912C60.7972 12.1543 59.2968 11.7911 58.0334 11.7911C56.5962 11.7911 55.2774 12.4386 55.2774 13.7968C55.2774 15.155 56.8646 15.7473 58.1834 15.7473C59.0204 15.7473 59.6837 15.6604 60.3076 15.5025V14.6733H58.3571C58.1834 14.6733 58.136 14.776 58.1281 14.9339H57.9465V13.1651H58.1281C58.136 13.323 58.1834 13.3941 58.3571 13.3941H62.8187V13.5441C62.6371 13.5599 62.5818 13.6152 62.5818 13.7573V15.8499C62.5818 15.9605 62.6134 16.0631 62.7634 16.0631H62.8424V16.2053H62.8345ZM67.6356 17.1292C66.001 17.1292 64.627 16.379 64.627 14.9734C64.627 13.5757 66.001 12.8176 67.6356 12.8176C69.2702 12.8176 70.6364 13.5757 70.6364 14.9734C70.6364 16.379 69.2702 17.1292 67.6356 17.1292ZM77.5854 17.2871H77.467C77.4354 17.1213 77.388 17.0818 77.2932 17.0818H72.2631V16.9871C72.5 16.9713 72.5237 16.916 72.5237 16.8449V13.1098C72.5237 13.0387 72.5 12.9835 72.2631 12.9677V12.8729H74.2451V12.9677C74.0082 12.9835 73.9766 13.0387 73.9766 13.1098V16.1105H77.2853C77.3801 16.1105 77.4275 16.071 77.4591 15.8815H77.5775V17.2871H77.5854ZM82.1654 17.0818H79.0779V16.9792C79.3148 16.9634 79.3463 16.9081 79.3463 16.837V13.1019C79.3463 13.0308 79.3148 12.9756 79.0779 12.9598V12.8729H82.276C84.0369 12.8729 84.874 13.781 84.874 14.9734C84.8661 16.071 83.9501 17.0818 82.1654 17.0818Z" fill="#24588B"/>
<path d="M22.6475 0C18.1386 0 13.9691 1.43719 10.5578 3.88514C4.24049 7.63604 0 14.5456 0 22.4501C0 34.3503 9.61019 44 21.463 44C31.2075 44 39.4358 37.4695 42.0495 28.5384C42.9734 26.1773 43.4867 23.6109 43.4867 20.9182C43.4788 9.3575 34.145 0 22.6475 0ZM22.6317 41.1019C11.5291 41.1019 2.52692 32.0998 2.52692 21.005C2.52692 9.91026 11.5291 0.900215 22.6317 0.900215C33.7344 0.900215 42.7365 9.90237 42.7365 20.9971C42.7365 32.0919 33.7423 41.1019 22.6317 41.1019Z" fill="#24588B"/>
<path d="M33.6652 12.6759C33.6652 12.6601 33.8152 12.2021 33.7362 10.7333C33.6336 9.06714 32.6623 8.35645 31.2014 8.35645C29.6537 8.35645 28.7219 10.4648 27.6953 11.5309L28.2876 11.5704C28.2955 11.5704 28.2955 11.5704 28.3034 11.5625C28.2955 11.5625 28.2955 11.5625 28.2876 11.5704L27.6953 11.5309C27.6953 11.5309 28.098 11.8704 28.2797 12.0363C28.2876 12.0284 30.5697 11.1676 31.7542 11.373C32.2911 11.4598 33.1677 11.9889 33.6652 12.6759L33.3414 11.673C33.3414 11.673 33.3414 11.673 33.3335 11.6651C33.3335 11.6651 33.3335 11.6651 33.3414 11.673L33.6652 12.6759Z" fill="#24588B"/>
<path d="M29.7878 14.7905L29.7246 14.7432V14.7511C30.0326 16.0856 32.4095 16.9858 33.4834 18.3045C33.4834 18.2809 33.7045 17.1595 33.4518 16.362C33.0175 15.0353 30.7354 15.4302 29.7878 14.7905ZM30.9091 15.6592C30.917 15.675 30.9407 15.6987 30.9644 15.7223C31.0986 15.8566 31.4382 16.0856 31.8093 16.3304C31.375 16.0382 30.9802 15.7776 30.9091 15.6592ZM33.0807 17.2859C33.0807 17.2859 33.0728 17.278 33.0728 17.2701C33.0728 17.278 33.0807 17.278 33.0807 17.2859Z" fill="#24588B"/>
<path d="M30.599 20.0029C30.599 20.0029 30.3779 21.0295 30.441 21.9218C30.5516 23.6275 32.0441 23.7143 33.4418 25.7201C33.4418 25.6964 33.6629 24.6225 33.1496 23.051C32.7626 21.8981 30.599 20.0029 30.599 20.0029ZM30.9464 22.0876C31.128 22.9326 32.2573 23.5643 32.8969 24.3619C32.2573 23.5643 31.128 22.9405 30.9464 22.0876Z" fill="#24588B"/>
<path d="M14.666 17.7552L16.3243 22.8644C16.7981 22.0431 18.6064 21.1824 19.6172 21.0718L20.4148 17.5815L19.862 17.9842L20.4148 17.5736C20.2963 17.4078 20.1621 17.313 20.0278 17.2736C18.9618 17.7316 17.0113 15.8601 17.0113 15.8601L17.2798 15.5205L21.544 16.1127L20.4621 21.0718H21.9309L22.4679 21.9405H22.5863L23.0996 21.0718H24.5684L23.4944 16.1127L27.7507 15.5205L28.035 15.8601C28.035 15.8601 26.0845 17.7316 25.0027 17.2736C24.8685 17.313 24.7421 17.4078 24.6158 17.5736L25.4291 21.0718C26.4399 21.1745 28.2482 22.0431 28.722 22.8644L30.3803 17.7552L29.8433 17.9369L28.5562 21.901L29.2116 19.8952L29.8433 17.9369L30.3803 17.7552L27.0005 12.4961H18.03L14.666 17.7552ZM19.2224 20.677L19.4435 19.7057L19.5461 19.2477L19.2224 20.677C19.0723 20.7086 18.9223 20.756 18.7565 20.8033C18.9144 20.756 19.0723 20.7086 19.2224 20.677ZM16.6244 21.901C16.6402 21.8931 16.656 21.8773 16.6639 21.8694C16.656 21.8852 16.6402 21.8931 16.6244 21.901ZM22.2942 15.7416L17.4456 15.0704L16.7586 15.7732L17.3982 15.1099L17.4377 15.0625L22.2942 15.7416Z" fill="#24588B"/>
<path d="M24.7815 11.4349L24.7578 11.4428C27.34 11.7113 28.0981 9.91875 28.9983 8.83691C28.9983 8.83691 28.1692 8.8685 27.3084 8.8685C26.4477 8.8685 26.0529 9.66606 26.0529 9.66606C26.0529 9.66606 25.2237 11.0796 24.7815 11.4349ZM28.0033 9.45285C27.9559 9.50813 27.9007 9.58709 27.8454 9.66606C27.9007 9.5792 27.9559 9.50813 28.0033 9.45285Z" fill="#24588B"/>
<path d="M21.3758 24.6936V23.7145L21.8496 23.138L19.5043 22.7432L19.4253 22.0088C19.4253 22.0088 16.8984 22.8616 16.93 23.9672C16.93 25.4596 18.9199 26.7784 18.9199 26.7784L21.8575 24.899V23.138L21.3837 23.7145L21.3758 24.6936Z" fill="#24588B"/>
<path d="M24.2674 32.0064C24.2911 32.0617 24.3148 32.1249 24.3306 32.1802C24.2911 32.0854 24.2595 31.9906 24.22 31.9038C24.2437 31.9354 24.2516 31.9748 24.2674 32.0064H24.7886C24.5912 31.3905 24.3464 30.7825 24.3938 30.1191C21.2114 31.6037 23.9516 34.4702 22.8223 35.7021L23.6989 35.1414C23.7068 35.1335 23.7225 35.1256 23.7304 35.1177C23.7225 35.1256 23.7068 35.1335 23.6989 35.1493L22.8223 35.71C22.8223 35.71 24.7728 35.6231 25.065 33.5226C25.1045 32.9935 24.9623 32.5039 24.7886 32.0143L24.2674 32.0064ZM23.8489 34.9993C23.8647 34.9835 23.8726 34.9756 23.8884 34.9598C23.8726 34.9677 23.8647 34.9835 23.8489 34.9993ZM24.6228 33.6252C24.6228 33.6016 24.6307 33.5858 24.6307 33.5621C24.6307 33.5621 24.6307 33.5621 24.6307 33.5542V33.5621C24.6307 33.5858 24.6307 33.6016 24.6228 33.6252Z" fill="#24588B"/>
<path d="M28.0723 32.0054C28.096 30.3392 27.3695 29.897 27.0932 28.3177C27.0537 28.065 27.0221 27.7886 27.0142 27.4648C22.9079 29.1705 27.5906 32.8503 25.3559 35.1641C27.0853 34.7534 27.9618 33.8453 28.0644 32.3213C28.0723 32.2186 28.0723 32.1081 28.0723 32.0054H27.488C27.488 32.1081 27.4959 32.2107 27.4959 32.3213C27.5196 33.2452 26.9352 34.1375 26.4772 34.4692C26.9431 34.1375 27.5275 33.2531 27.4959 32.3213C27.4959 32.1712 27.488 32.0291 27.4722 31.9027C27.4722 31.8712 27.4643 31.8475 27.4643 31.8159C27.4564 31.7053 27.4406 31.5948 27.4169 31.4921C27.4169 31.4763 27.409 31.4605 27.409 31.4526C27.3853 31.3342 27.3616 31.2236 27.3301 31.1131V31.1052C27.3143 31.0499 27.2985 31.0025 27.2906 30.9552C27.3853 31.2552 27.4564 31.5948 27.488 32.0054H28.0723Z" fill="#24588B"/>
<path d="M22.2206 32.0085H21.6758C21.6758 32.0243 21.6758 32.048 21.6758 32.0716C21.6758 32.048 21.6758 32.0164 21.6679 31.9927C21.6679 32.0006 21.6679 32.0006 21.6679 32.0085H22.2206C22.1338 31.2978 21.739 30.6266 20.6334 30.1133L21.1309 31.0925L20.6255 30.1133C20.7282 31.2978 19.8911 32.3085 19.9701 33.5088C20.2623 35.6014 22.197 35.6962 22.2128 35.6962C21.4863 34.8828 22.4023 33.3746 22.2206 32.0085ZM21.3599 31.2978C21.3757 31.3136 21.3836 31.3294 21.3915 31.3452C21.3836 31.3215 21.3757 31.3057 21.3599 31.2978ZM21.5415 31.5584C21.5336 31.5426 21.5257 31.5189 21.5178 31.5031C21.5336 31.5268 21.5415 31.5584 21.5573 31.5821C21.5494 31.5742 21.5415 31.5663 21.5415 31.5584Z" fill="#24588B"/>
<path d="M16.0382 32.0072C15.9592 30.4042 16.7647 29.4803 17.0411 28.3274C17.2227 27.5614 17.1832 26.6928 16.4725 25.4609C14.7826 28.0905 11.7424 31.1781 16.5041 33.9814C16.2119 33.2154 16.0698 32.5679 16.0382 32.0072ZM16.5357 28.2169C16.6147 27.8852 16.6462 27.5299 16.5989 27.0955C16.5989 27.0876 16.5989 27.0719 16.5989 27.064C16.591 26.9692 16.5673 26.8665 16.5436 26.7639C16.5357 26.7165 16.5278 26.6691 16.5199 26.6138C16.662 27.2614 16.6462 27.7668 16.5357 28.2169ZM16.512 28.2879C16.512 28.3037 16.5041 28.3116 16.5041 28.3274C16.4883 28.3827 16.4725 28.4459 16.4488 28.5011C16.4725 28.4222 16.4962 28.359 16.512 28.2879ZM15.5565 31.0044C15.5565 30.9886 15.5565 30.9728 15.5644 30.9491C15.5644 30.9333 15.5723 30.9254 15.5723 30.9175C15.5644 30.9412 15.5565 30.9728 15.5565 31.0044ZM15.596 32.1731C15.6118 32.2599 15.6197 32.3468 15.6434 32.4416C15.6197 32.3547 15.6039 32.2678 15.596 32.1731ZM15.6276 30.5622C15.6276 30.5543 15.6276 30.5464 15.6276 30.5464C15.6355 30.5227 15.6434 30.499 15.6513 30.4753C15.6434 30.5069 15.6355 30.5306 15.6276 30.5622ZM15.7381 30.2068C15.746 30.191 15.746 30.1752 15.7539 30.1673C15.7539 30.1673 15.7539 30.1594 15.7618 30.1594C15.746 30.1673 15.7381 30.1831 15.7381 30.2068Z" fill="#24588B"/>
<path d="M30.4181 28.3216C29.8969 27.3266 29.1467 26.3632 28.5624 25.4551C26.4382 29.1902 30.2759 29.5692 28.5308 33.9755C29.6205 33.328 30.3075 32.6726 30.6786 32.0014H30.0864C30.039 32.0882 29.9916 32.1751 29.9364 32.2541C30.0153 32.1356 30.0785 32.0172 30.1338 31.8987C30.118 31.9303 30.1022 31.9619 30.0864 31.9935H30.6865C31.3893 30.7853 31.0656 29.5376 30.4181 28.3216ZM28.7361 26.6712C28.7124 26.6396 28.6887 26.6001 28.6729 26.5685C28.7756 26.7264 28.8782 26.8844 28.9809 27.0423C28.894 26.916 28.815 26.7896 28.7361 26.6712ZM30.2759 31.5592C30.2759 31.5513 30.2838 31.5355 30.2838 31.5276V31.5197C30.2838 31.5355 30.2759 31.5434 30.2759 31.5592Z" fill="#24588B"/>
<path d="M15.7531 23.9657C15.6742 23.2313 15.2162 22.5127 15.2162 22.5127C14.8529 24.5974 11.7732 25.395 12.0891 28.1904C12.2391 29.5802 13.242 30.5988 13.242 30.5988C13.0999 29.9118 13.4315 29.1301 13.8737 28.3167C14.695 26.8716 15.9032 25.3081 15.7531 23.9657ZM13.2499 30.6067L13.2262 30.5673L12.9261 28.9721L13.2499 30.6067ZM13.1394 28.3167C13.1315 28.3325 13.1236 28.3562 13.1078 28.372C13.2657 28.0324 13.5026 27.6534 13.7632 27.2428C14.0869 26.7453 14.4423 26.2004 14.7266 25.6161C14.2291 26.6584 13.4947 27.5744 13.1394 28.3167ZM15.2556 23.9578C15.2635 23.9104 15.2635 23.863 15.2714 23.8235C15.2714 23.863 15.2635 23.9104 15.2556 23.9578Z" fill="#24588B"/>
<path d="M19.2993 32.0054C19.6625 30.6788 20.1916 29.3363 19.2993 28.3177C19.0387 27.9939 18.6281 27.7096 18.0279 27.4648C17.9174 29.897 16.8356 30.0944 16.9777 32.3213C17.0646 33.8453 17.9569 34.7534 19.6862 35.1641C18.8097 34.2559 18.9992 33.1425 19.2993 32.0054ZM18.5254 33.1741C18.5254 33.1504 18.5254 33.1267 18.5333 33.1109C18.5333 33.103 18.5333 33.0872 18.5333 33.0793C18.5333 33.1109 18.5333 33.1425 18.5254 33.1741ZM18.5649 32.803C18.5649 32.7951 18.5649 32.7793 18.5649 32.7714C18.5649 32.7635 18.5649 32.7477 18.5728 32.7398C18.5728 32.7635 18.5649 32.7793 18.5649 32.803ZM18.5728 28.3098L18.5886 28.3177C19.1887 28.8547 19.2756 29.4706 19.1809 30.1418C19.1887 30.0549 19.1966 29.976 19.2045 29.897C19.2045 29.8812 19.2045 29.8575 19.2045 29.8417C19.2045 29.7786 19.2045 29.7075 19.2045 29.6443C19.2045 29.6285 19.2045 29.6206 19.2045 29.6048C19.1887 29.1389 19.0308 28.7046 18.5728 28.3098Z" fill="#24588B"/>
<path d="M25.7277 8.86914H24.2353C22.7981 8.86914 23.3666 10.7012 22.8691 11.4434C24.2668 11.7119 24.8512 10.2195 25.7277 8.86914Z" fill="#24588B"/>
<path d="M31.168 17.5576C31.168 17.5576 31.239 19.0817 31.3891 19.7055C31.5628 20.3293 32.9289 20.8663 33.4422 21.7191C33.4422 21.6718 33.3395 19.6897 32.9763 19.0738C32.6209 18.4578 31.168 17.5576 31.168 17.5576ZM31.926 19.7292C31.8787 19.6581 31.8471 19.5476 31.8234 19.437C31.8471 19.5476 31.8787 19.6502 31.926 19.7292Z" fill="#24588B"/>
<path d="M28.168 12.6368C28.7523 15.14 32.1479 13.6238 33.4508 14.8478C33.4508 14.8083 33.7035 13.0553 31.8952 12.3999C30.7739 11.9971 29.0524 13.0553 28.168 12.6368L29.1471 13.2685C29.234 13.3554 29.3604 13.4185 29.5104 13.4659C29.9526 13.616 30.6159 13.6475 31.2319 13.6791C30.4027 13.6396 29.4946 13.6002 29.1471 13.2685L28.168 12.6368Z" fill="#24588B"/>
<path d="M11.561 18.3124C12.6428 16.9858 15.0276 16.0777 15.3198 14.7432L14.2616 15.6592C14.1748 15.7855 13.7168 16.0856 13.243 16.4015C13.7168 16.0856 14.1827 15.7855 14.2616 15.6592L15.3198 14.7432C14.4117 15.4539 12.0348 15.0038 11.5926 16.3699C11.3162 17.1753 11.5531 18.2966 11.561 18.3124Z" fill="#24588B"/>
<path d="M13.2682 11.373C14.4606 11.1755 16.7349 12.0284 16.7585 12.0363C16.9402 11.8783 17.3429 11.5309 17.3429 11.5309L16.8612 11.5704C16.7112 11.523 16.569 11.4835 16.4348 11.4361C16.5769 11.4756 16.7191 11.523 16.8612 11.5704L17.3429 11.5309C16.3163 10.4648 15.3924 8.35645 13.8368 8.35645C12.3601 8.35645 11.4046 9.06714 11.302 10.7333C11.1993 12.2337 11.3731 12.6759 11.3731 12.6759C11.8784 11.9889 12.755 11.4598 13.2682 11.373ZM16.3005 11.3966C16.34 11.4124 16.3874 11.4203 16.4269 11.4361C16.3637 11.4124 16.3005 11.3966 16.2374 11.3809C16.2611 11.3809 16.2848 11.3887 16.3005 11.3966ZM11.8153 11.673C12.1469 11.3493 12.6128 10.9939 13.1419 10.915C12.6207 10.9939 12.1469 11.3572 11.8153 11.673Z" fill="#24588B"/>
<path d="M13.6448 19.7114C13.8028 19.0796 13.8738 17.5635 13.8738 17.5635C13.8738 17.5635 12.4288 18.4637 12.0655 19.0875C11.7023 19.7193 11.5996 21.7329 11.6075 21.7171L12.2077 20.6905L11.5996 21.7329C12.105 20.8722 13.4711 20.3273 13.6448 19.7114ZM13.25 19.7272C13.2737 19.6877 13.2895 19.6403 13.3053 19.585C13.2816 19.6403 13.2658 19.6877 13.25 19.7272C13.2263 19.7666 13.2026 19.7982 13.171 19.8298C13.2026 19.7903 13.2263 19.7587 13.25 19.7272ZM13.171 19.8298C12.9894 20.0351 12.6735 20.2167 12.413 20.4221C12.6735 20.2167 12.9894 20.043 13.171 19.8298Z" fill="#24588B"/>
<path d="M11.5928 25.7113C12.9747 23.7056 14.4751 23.6187 14.5935 21.913C14.6646 21.0207 14.4198 19.9941 14.4198 19.9941C14.4198 19.9941 12.2719 21.8972 11.885 23.0343C11.348 24.6374 11.5928 25.7113 11.5928 25.7113L12.1298 24.5268C12.1377 24.511 12.1534 24.5031 12.1613 24.4873C12.185 24.4557 12.2087 24.4241 12.2324 24.4005C12.2008 24.4399 12.1692 24.4873 12.1377 24.5268L11.5928 25.7113ZM14.2066 22.1104C14.2145 22.0789 14.2224 22.0394 14.2303 22.0078C14.2303 21.9999 14.2303 21.992 14.2303 21.9841C14.2382 21.9209 14.2461 21.8498 14.2461 21.7867C14.2461 21.8577 14.2382 21.9367 14.2303 22.0078C14.2224 22.0473 14.2145 22.0867 14.2066 22.1262C14.2066 22.1262 14.2066 22.1183 14.2066 22.1104Z" fill="#24588B"/>
<path d="M24.7326 28.3259C25.2222 27.8127 25.5696 27.3468 25.5696 27.3468L24.8194 27.5679C24.6378 27.789 24.3851 28.0733 24.1008 28.3259C24.0693 28.3575 24.0298 28.3891 23.9903 28.4207C24.2904 28.1522 24.5667 27.86 24.772 27.6231C24.7878 27.6074 24.8036 27.5837 24.8194 27.5679L25.5617 27.3468L22.4899 25.2305L19.4023 27.3468L20.2947 27.5679C20.6263 27.9627 21.1554 28.5234 21.7082 28.8629C21.4713 28.7129 21.2344 28.5313 21.0212 28.3259C20.7369 28.0654 20.4842 27.789 20.3026 27.5679L19.4023 27.3468C19.4023 27.3468 19.7498 27.8127 20.2315 28.3259C20.8395 28.9419 21.6766 29.6289 22.4899 29.6289C23.2875 29.6289 24.1245 28.9419 24.7326 28.3259ZM21.724 28.8629C21.7792 28.8945 21.8266 28.9261 21.8819 28.9498C21.8266 28.9261 21.7713 28.8945 21.724 28.8629ZM21.8977 28.9656C21.953 28.9972 22.0082 29.0208 22.0635 29.0445C22.0082 29.0208 21.953 28.9893 21.8977 28.9656ZM22.5689 29.1551C22.5768 29.1551 22.5926 29.1551 22.6005 29.1551C22.5847 29.1551 22.5768 29.1551 22.5689 29.1551Z" fill="#24588B"/>
<path d="M23.7608 24.6936L23.1133 24.899L26.0508 26.7784C26.0508 26.7784 28.0408 25.4596 28.0408 23.9672C28.0645 22.8616 25.5454 22.0088 25.5454 22.0088L25.4665 22.7432L23.1212 23.138V24.899L23.7608 24.6936ZM26.7299 25.6412C26.6352 25.736 26.5483 25.8229 26.4614 25.9018C26.5404 25.8229 26.6352 25.736 26.7299 25.6412Z" fill="#24588B"/>
<path d="M16.0469 8.83691C16.9471 9.91875 17.7052 11.7192 20.2716 11.4507L19.4661 11.1111C18.4317 10.8348 17.8789 10.3373 17.5314 9.93455C17.8789 10.3452 18.4317 10.8427 19.4661 11.1111L20.2716 11.4507C19.8294 11.1032 18.9923 9.67396 18.9923 9.67396C18.9923 9.67396 18.5975 8.8764 17.7289 8.8764C16.8681 8.8685 16.0469 8.83691 16.0469 8.83691Z" fill="#24588B"/>
<path d="M29.8112 22.5127C29.8033 22.5206 29.3768 23.2313 29.29 23.9657C29.0373 26.0662 32.1565 28.7036 31.7932 30.6067C31.7932 30.6067 32.7329 29.6512 32.9382 28.3167L32.9461 28.1904C33.2699 25.4029 30.1744 24.6053 29.8112 22.5127ZM32.4644 28.3167C32.4486 28.372 32.4328 28.4273 32.417 28.4825C32.5592 27.9772 32.5197 27.5034 32.3776 27.069C32.5039 27.456 32.5513 27.8745 32.4644 28.3167ZM32.3381 26.9664C32.3065 26.8874 32.2749 26.8164 32.2433 26.7374C32.2749 26.8085 32.3065 26.8874 32.3381 26.9664ZM29.9691 23.9578C29.9375 23.9104 29.9138 23.863 29.898 23.8156C29.9217 23.863 29.9454 23.9104 29.9691 23.9578Z" fill="#24588B"/>
<path d="M16.8762 12.6368L16.0313 13.2685C15.5969 13.6791 14.3335 13.6475 13.4017 13.7107C14.294 13.6554 15.4943 13.6712 15.976 13.308C15.9918 13.2922 16.0155 13.2843 16.0313 13.2685L16.8762 12.6368C15.976 13.0553 14.2703 11.9971 13.149 12.3999C11.317 13.0711 11.5934 14.8478 11.6013 14.8478L12.0908 14.303L11.6013 14.8557C12.8963 13.6238 16.284 15.14 16.8762 12.6368Z" fill="#24588B"/>
<path d="M22.1496 11.4434L21.6126 10.9933C21.5889 10.9854 21.5573 10.9775 21.5337 10.9696C21.5573 10.9775 21.5889 10.9933 21.6126 10.9933L22.1496 11.4434C21.6758 10.7012 22.2286 8.86914 20.7993 8.86914H19.291C20.1912 10.2195 20.7677 11.7119 22.1496 11.4434ZM21.2573 10.7801C21.281 10.7959 21.2968 10.8196 21.3204 10.8354C21.2968 10.8196 21.281 10.8038 21.2573 10.7801ZM20.2939 9.50087C20.3097 9.53246 20.3255 9.56404 20.3492 9.59563C20.3176 9.54825 20.2939 9.50087 20.2702 9.46928C20.2781 9.47718 20.286 9.49297 20.2939 9.50087Z" fill="#24588B"/>
<path d="M49.4223 33.7158H48.1494L51.831 23.6892H53.0844L56.766 33.7158H55.4931L52.4969 25.2754H52.4185L49.4223 33.7158ZM49.8923 29.7992H55.0231V30.8762H49.8923V29.7992ZM68.3545 23.6892H69.5686V30.3279C69.5686 31.0133 69.4071 31.6253 69.084 32.1638C68.7641 32.6991 68.312 33.1218 67.7278 33.4319C67.1436 33.7387 66.4582 33.8921 65.6716 33.8921C64.885 33.8921 64.1995 33.7387 63.6153 33.4319C63.0311 33.1218 62.5774 32.6991 62.2543 32.1638C61.9344 31.6253 61.7745 31.0133 61.7745 30.3279V23.6892H62.9886V30.23C62.9886 30.7196 63.0964 31.1553 63.3118 31.5372C63.5272 31.9158 63.834 32.2144 64.2322 32.4331C64.6336 32.6485 65.1134 32.7562 65.6716 32.7562C66.2297 32.7562 66.7095 32.6485 67.1109 32.4331C67.5124 32.2144 67.8192 31.9158 68.0314 31.5372C68.2468 31.1553 68.3545 30.7196 68.3545 30.23V23.6892ZM75.44 33.7158V23.6892H78.8279C79.6112 23.6892 80.2542 23.823 80.7568 24.0906C81.2595 24.355 81.6316 24.7189 81.8731 25.1824C82.1146 25.6459 82.2354 26.173 82.2354 26.7637C82.2354 27.3545 82.1146 27.8784 81.8731 28.3353C81.6316 28.7922 81.2611 29.1513 80.7617 29.4124C80.2624 29.6702 79.6243 29.7992 78.8475 29.7992H76.1058V28.7025H78.8083C79.3436 28.7025 79.7744 28.6242 80.1008 28.4675C80.4305 28.3108 80.6687 28.0889 80.8156 27.8017C80.9657 27.5112 81.0408 27.1652 81.0408 26.7637C81.0408 26.3623 80.9657 26.0114 80.8156 25.7111C80.6655 25.4109 80.4256 25.1791 80.0959 25.0159C79.7663 24.8495 79.3305 24.7662 78.7887 24.7662H76.6541V33.7158H75.44ZM80.1596 29.2117L82.6271 33.7158H81.2171L78.7887 29.2117H80.1596ZM87.7053 33.7158V23.6892H93.7565V24.7662H88.9194V28.1542H93.4432V29.2312H88.9194V32.6387H93.8348V33.7158H87.7053ZM99.3916 33.7158V23.6892H100.606V32.6387H105.267V33.7158H99.3916Z" fill="#6E87A7"/>
<path d="M111.807 23.6892V33.7158H110.593V23.6892H111.807ZM118.1 33.7158H116.827L120.509 23.6892H121.762L125.444 33.7158H124.171L121.174 25.2754H121.096L118.1 33.7158ZM118.57 29.7992H123.701V30.8762H118.57V29.7992Z" fill="#C8A064"/>
</svg>
