<svg xmlns="http://www.w3.org/2000/svg" width="137" height="45" viewBox="0 0 137 45" fill="none">
  <g clip-path="url(#clip0_638_2065)">
    <path d="M103.25 13.6383C103.488 13.6542 103.512 13.7177 103.512 13.7812V17.5373C103.512 17.6167 103.488 17.6644 103.25 17.6803V17.7756H105.235V17.6803C104.997 17.6644 104.965 17.6167 104.965 17.5373V13.7812C104.965 13.7177 104.997 13.6542 105.235 13.6383V13.543H103.25V13.6383Z" fill="white"/>
    <path d="M112.111 13.5506H107.283V13.6459C107.537 13.6618 107.56 13.7253 107.56 13.7889V17.5449C107.56 17.6244 107.537 17.672 107.283 17.6879V17.7831H112.111C112.222 17.7831 112.254 17.8229 112.285 17.9579H112.397V16.5523H112.285C112.254 16.7508 112.222 16.7985 112.111 16.7985H109.014V16.0521H110.809C111.007 16.0521 111.07 16.1394 111.103 16.2347H111.214V14.98H111.103C111.07 15.0832 111.007 15.1626 110.809 15.1626H109.014V14.4956H112.111C112.222 14.4956 112.254 14.5274 112.285 14.7179H112.397V13.3203H112.285C112.254 13.503 112.222 13.5506 112.111 13.5506Z" fill="white"/>
    <path d="M119.188 16.7988H115.844V13.7812C115.844 13.7177 115.876 13.6542 116.122 13.6383V13.543H114.129V13.6383C114.367 13.6621 114.399 13.7177 114.399 13.7812V17.5373C114.399 17.6167 114.367 17.6644 114.129 17.6803V17.7756H119.188C119.283 17.7756 119.331 17.8153 119.362 17.99H119.481V16.5765H119.362C119.331 16.7591 119.283 16.7988 119.188 16.7988Z" fill="white"/>
    <path d="M124.166 13.5498H120.957V13.6451C121.196 13.661 121.22 13.7166 121.22 13.788V17.5441C121.22 17.6236 121.187 17.6712 120.957 17.687V17.7823H124.054C125.849 17.7823 126.77 16.7739 126.77 15.6621C126.77 14.463 125.937 13.5498 124.166 13.5498ZM123.904 16.8294H122.664V14.4948H123.904C124.92 14.4948 125.333 14.9713 125.333 15.6621C125.333 16.345 124.92 16.8294 123.904 16.8294Z" fill="white"/>
    <path d="M129.518 14.6785C129.518 14.4958 129.812 14.2973 130.646 14.2973C131.552 14.2973 132.663 14.5276 132.663 14.7261V14.8135L132.782 14.8611L133.45 13.7414L133.338 13.7017C133.274 13.7652 133.195 13.8288 133.076 13.8288C132.814 13.8288 131.861 13.4873 130.526 13.4873C129.105 13.4873 128.185 14.0431 128.185 14.8531C128.185 16.4017 132.171 15.7505 132.171 16.3381C132.171 16.6875 131.726 16.8861 130.757 16.8861C129.749 16.8861 128.708 16.5208 128.708 16.3064L128.732 16.1317L128.645 16.092L127.922 17.5214L128.042 17.5451L128.24 17.4419C128.455 17.4419 129.169 17.8151 130.789 17.8151C132.893 17.8151 133.513 17.0528 133.513 16.362C133.521 14.5196 129.518 15.4011 129.518 14.6785Z" fill="white"/>
    <path d="M82.4751 14.3057H81.2363V16.6403H82.4751C83.4915 16.6403 83.9204 16.1559 83.9204 15.473C83.9204 14.79 83.4995 14.3057 82.4751 14.3057Z" fill="white"/>
    <path d="M68.016 14.2891C67.1742 14.2891 66.4277 14.7179 66.4277 15.4723C66.4277 16.2347 67.1742 16.6555 68.016 16.6555C68.8577 16.6555 69.6041 16.2347 69.6041 15.4723C69.6041 14.7179 68.8577 14.2891 68.016 14.2891Z" fill="white"/>
    <path d="M101.001 11.1121H93.1953V11.2709C93.576 11.2948 93.6237 11.3821 93.6237 11.5012V17.4093C93.6237 17.5205 93.576 17.6158 93.1953 17.6396V17.7905H96.3957V17.6396C96.0141 17.6158 95.9664 17.5284 95.9664 17.4093V15.2811H99.3495C99.516 15.2811 99.5799 15.3368 99.6195 15.6226H99.8103V13.4944H99.6195C99.5799 13.7247 99.5241 13.7882 99.3495 13.7882H95.9664V12.6606H101.001C101.168 12.6606 101.231 12.7242 101.271 12.9703H101.462V10.7627H101.271C101.231 11.0485 101.168 11.1121 101.001 11.1121Z" fill="white"/>
    <path d="M89.9162 8.58008H48.7578V19.5864H89.9082V9.6601H136.8V8.58008H89.9162ZM63.1867 16.7117C61.8049 17.347 60.1533 17.6646 58.2791 17.6646C55.73 17.6646 53.3319 16.5528 53.3319 14.2579C53.3319 11.9629 55.738 10.8512 58.2791 10.8512C59.2876 10.8512 59.7244 10.9147 60.7646 11.1609C61.2649 11.2721 61.7493 11.4865 61.8685 11.4865C61.9717 11.4865 62.0432 11.4309 62.0908 11.3832L62.2735 11.4309L61.2888 13.1065L61.1062 13.0191L61.1379 12.8762C61.1379 12.6379 59.6291 12.2726 58.3586 12.2726C56.9133 12.2726 55.5871 12.9239 55.5871 14.2897C55.5871 15.6555 57.1833 16.2511 58.5094 16.2511C59.3512 16.2511 60.0183 16.1638 60.6456 16.0049V15.1712H58.6841C58.5094 15.1712 58.4618 15.2744 58.4538 15.4331H58.2712V13.6544H58.4538C58.4618 13.8132 58.5094 13.8847 58.6841 13.8847H63.1708V14.0355C62.9882 14.0515 62.9325 14.107 62.9325 14.25V16.3544C62.9325 16.4655 62.9643 16.5688 63.1152 16.5688H63.1946V16.7117H63.1867ZM68.0148 17.6408C66.371 17.6408 64.9893 16.8864 64.9893 15.4729C64.9893 14.0673 66.371 13.305 68.0148 13.305C69.6586 13.305 71.0325 14.0673 71.0325 15.4729C71.0325 16.8864 69.6586 17.6408 68.0148 17.6408ZM78.0205 17.7996H77.9014C77.8697 17.6328 77.822 17.5931 77.7267 17.5931H72.6683V17.4978C72.9065 17.482 72.9303 17.4264 72.9303 17.3549V13.5988C72.9303 13.5273 72.9065 13.4718 72.6683 13.4558V13.3605H74.6614V13.4558C74.4232 13.4718 74.3914 13.5273 74.3914 13.5988V16.6164H77.7187C77.814 16.6164 77.8617 16.5767 77.8934 16.3861H78.0126V17.7996H78.0205ZM82.6263 17.5931H79.5213V17.4899C79.7596 17.474 79.7913 17.4185 79.7913 17.347V13.5908C79.7913 13.5194 79.7596 13.4638 79.5213 13.4479V13.3605H82.7375C84.5083 13.3605 85.3501 14.2738 85.3501 15.4729C85.3421 16.5767 84.4209 17.5931 82.6263 17.5931Z" fill="white"/>
    <path d="M22.7749 0.000976562C18.2406 0.000976562 14.0477 1.44624 10.6171 3.90796C4.26433 7.67995 0 14.6283 0 22.5773C0 34.5444 9.6642 44.2484 21.5837 44.2484C31.3829 44.2484 39.6575 37.6811 42.286 28.6998C43.215 26.3254 43.7312 23.7446 43.7312 21.0368C43.7233 9.41111 34.337 0.000976562 22.7749 0.000976562ZM22.7589 41.334C11.5939 41.334 2.54113 32.2813 2.54113 21.1241C2.54113 9.96695 11.5939 0.906251 22.7589 0.906251C33.9241 0.906251 42.9768 9.95903 42.9768 21.1161C42.9768 32.2733 33.932 41.334 22.7589 41.334Z" fill="white"/>
    <path d="M33.853 12.7461C33.853 12.7302 34.0039 12.2697 33.9244 10.7926C33.8212 9.11705 32.8445 8.40234 31.3754 8.40234C29.819 8.40234 28.8819 10.5226 27.8496 11.5947C27.8496 11.5947 28.2546 11.9361 28.4372 12.1029C28.4451 12.0949 30.7401 11.2294 31.9313 11.4358C32.4713 11.5232 33.3527 12.0552 33.853 12.7461Z" fill="white"/>
    <path d="M29.9542 14.8748L29.8906 14.8271V14.8352C30.2003 16.1771 32.5906 17.0825 33.6705 18.4086C33.6705 18.3848 33.8929 17.2571 33.6389 16.4551C33.2021 15.121 30.9071 15.5181 29.9542 14.8748Z" fill="white"/>
    <path d="M30.7717 20.1152C30.7717 20.1152 30.5494 21.1475 30.613 22.0449C30.7241 23.7601 32.225 23.8475 33.6305 25.8645C33.6305 25.8408 33.8529 24.7608 33.3367 23.1805C32.9476 22.0211 30.7717 20.1152 30.7717 20.1152Z" fill="white"/>
    <path d="M14.7461 17.8521L16.4137 22.99C16.8902 22.1641 18.7087 21.2986 19.7252 21.1874L20.5272 17.6775L19.9713 18.0825L20.5272 17.6695C20.4081 17.5028 20.2731 17.4075 20.1381 17.3678C19.066 17.8283 17.1046 15.9463 17.1046 15.9463L17.3746 15.6048L21.6628 16.2005L20.5749 21.1874H22.0518L22.5918 22.0609H22.7109L23.2272 21.1874H24.7041L23.6241 16.2005L27.9044 15.6048L28.1903 15.9463C28.1903 15.9463 26.2288 17.8283 25.1409 17.3678C25.0059 17.4075 24.8788 17.5028 24.7518 17.6695L25.5698 21.1874C26.5862 21.2906 28.4047 22.1641 28.8811 22.99L30.5487 17.8521L30.0087 18.0348L28.7144 22.0212L29.3735 20.0041L30.0087 18.0348L30.5487 17.8521L27.15 12.5635H18.129L14.7461 17.8521Z" fill="white"/>
    <path d="M24.9184 11.5003L24.8945 11.5083C27.4912 11.7783 28.2536 9.97565 29.1588 8.8877C29.1588 8.8877 28.3251 8.91946 27.4594 8.91946C26.5939 8.91946 26.1968 9.72149 26.1968 9.72149C26.1968 9.72149 25.3631 11.143 24.9184 11.5003Z" fill="white"/>
    <path d="M21.4965 24.8328V23.8481L21.973 23.2684L19.6144 22.8714L19.5351 22.1328C19.5351 22.1328 16.9939 22.9904 17.0257 24.1022C17.0257 25.603 19.0268 26.9292 19.0268 26.9292L21.9809 25.0393V23.2684L21.5044 23.8481L21.4965 24.8328Z" fill="white"/>
    <path d="M23.8953 24.8328L23.2441 25.0393L26.1982 26.9292C26.1982 26.9292 28.1993 25.603 28.1993 24.1022C28.2231 22.9904 25.69 22.1328 25.69 22.1328L25.6105 22.8714L23.2521 23.2684V25.0393L23.8953 24.8328Z" fill="white"/>
    <path d="M49.895 37.6772H48.6426L52.2648 27.8125H53.4979L57.1201 37.6772H55.8678L52.9199 29.3732H52.8429L49.895 37.6772ZM50.3573 33.8239H55.4054V34.8835H50.3573V33.8239Z" fill="#6E87A7"/>
    <path d="M68.5206 27.8125H69.7151V34.3441C69.7151 35.0184 69.5562 35.6205 69.2382 36.1504C68.9236 36.677 68.4788 37.0929 67.904 37.3979C67.3292 37.6997 66.6549 37.8506 65.881 37.8506C65.1071 37.8506 64.4328 37.6997 63.858 37.3979C63.2831 37.0929 62.8368 36.677 62.5188 36.1504C62.2042 35.6205 62.0469 35.0184 62.0469 34.3441V27.8125H63.2414V34.2478C63.2414 34.7294 63.3474 35.1581 63.5593 35.5338C63.7713 35.9063 64.073 36.2001 64.4648 36.4152C64.8598 36.6272 65.3319 36.7332 65.881 36.7332C66.4301 36.7332 66.9021 36.6272 67.2971 36.4152C67.692 36.2001 67.9939 35.9063 68.2027 35.5338C68.4146 35.1581 68.5206 34.7294 68.5206 34.2478V27.8125Z" fill="#6E87A7"/>
    <path d="M75.4922 37.6772V27.8125H78.8254C79.5961 27.8125 80.2287 27.9442 80.7232 28.2075C81.2177 28.4676 81.5838 28.8256 81.8214 29.2817C82.059 29.7376 82.1778 30.2563 82.1778 30.8375C82.1778 31.4187 82.059 31.9341 81.8214 32.3836C81.5838 32.8332 81.2193 33.1864 80.728 33.4434C80.2367 33.697 79.609 33.8239 78.8447 33.8239H76.1473V32.7449H78.8062C79.3328 32.7449 79.7567 32.6678 80.0778 32.5136C80.402 32.3596 80.6365 32.1412 80.781 31.8586C80.9287 31.5728 81.0026 31.2324 81.0026 30.8375C81.0026 30.4425 80.9287 30.0972 80.781 29.8019C80.6333 29.5064 80.3973 29.2784 80.0729 29.1179C79.7486 28.9542 79.3199 28.8723 78.7868 28.8723H76.6868V37.6772H75.4922ZM80.1356 33.2458L82.5632 37.6772H81.176L78.7868 33.2458H80.1356Z" fill="#6E87A7"/>
    <path d="M87.5586 37.6772V27.8125H93.5118V28.8723H88.7532V32.2054H93.204V33.2652H88.7532V36.6176H93.5892V37.6772H87.5586Z" fill="#6E87A7"/>
    <path d="M99.0566 37.6772V27.8125H100.252V36.6176H104.837V37.6772H99.0566Z" fill="#6E87A7"/>
    <path d="M111.272 27.8125V37.6772H110.078V27.8125H111.272Z" fill="#C8A064"/>
    <path d="M117.462 37.6772H116.209L119.831 27.8125H121.064L124.687 37.6772H123.434L120.487 29.3732H120.409L117.462 37.6772ZM117.923 33.8239H122.972V34.8835H117.923V33.8239Z" fill="#C8A064"/>
  </g>
  <defs>
    <clipPath id="clip0_638_2065">
      <rect width="136.8" height="45.0023" fill="white"/>
    </clipPath>
  </defs>
</svg>