<svg width="19" height="17" viewBox="0 0 19 17" fill="none" xmlns="http://www.w3.org/2000/svg">
<path d="M16.6523 0.0457737C16.9395 -0.0567654 17.2559 0.0164768 17.4727 0.230344C17.6895 0.444211 17.7598 0.763547 17.6572 1.05066L12.4424 15.6083C12.2959 16.0155 11.9121 16.285 11.4814 16.285C11.0654 16.285 10.6904 16.0331 10.5352 15.6493L8.6543 11.0204C8.52246 10.6981 8.58105 10.329 8.80664 10.0653L11.5752 6.77234C11.7246 6.59363 11.7129 6.33288 11.5488 6.16882C11.3848 6.00476 11.1211 5.99304 10.9453 6.14245L7.65234 8.90515C7.38574 9.1278 7.01953 9.1864 6.69727 9.05749L2.05371 7.16784C1.66992 7.01257 1.41797 6.63757 1.41797 6.22156C1.41797 5.79089 1.6875 5.4071 2.09473 5.26062L16.6523 0.0457737Z" fill="#001E39"/>
</svg>
