<svg width="38" height="36" viewBox="0 0 38 36" fill="none" xmlns="http://www.w3.org/2000/svg">
<path d="M0 18C0 8.05888 8.05888 0 18 0C27.9411 0 36 8.05888 36 18C36 27.9411 27.9411 36 18 36C8.05888 36 0 27.9411 0 18Z" fill="url(#paint0_linear_984_1194)"/>
<path d="M20.8301 12.4547C20.707 12.5012 20.625 12.6188 20.625 12.75C20.625 12.8812 20.707 12.9988 20.8301 13.0453L22.375 13.625L22.9547 15.1699C23.0012 15.293 23.1187 15.375 23.25 15.375C23.3813 15.375 23.4988 15.293 23.5453 15.1699L24.125 13.625L25.6699 13.0453C25.793 12.9988 25.875 12.8812 25.875 12.75C25.875 12.6188 25.793 12.5012 25.6699 12.4547L24.125 11.875L23.5453 10.3301C23.4988 10.207 23.3813 10.125 23.25 10.125C23.1187 10.125 23.0012 10.207 22.9547 10.3301L22.375 11.875L20.8301 12.4547ZM15.7715 13.0043C15.7004 12.8484 15.5445 12.75 15.375 12.75C15.2055 12.75 15.0496 12.8484 14.9785 13.0043L13.5266 16.1488L10.382 17.6008C10.2234 17.6746 10.125 17.8305 10.125 18C10.125 18.1695 10.2234 18.3254 10.3793 18.3965L13.5238 19.8484L14.9758 22.993C15.0469 23.1488 15.2027 23.2473 15.3723 23.2473C15.5418 23.2473 15.6977 23.1488 15.7687 22.993L17.2207 19.8484L20.3652 18.3965C20.5211 18.3254 20.6195 18.1695 20.6195 18C20.6195 17.8305 20.5211 17.6746 20.3652 17.6035L17.2207 16.1516L15.7687 13.007L15.7715 13.0043ZM21.5 22.375L19.9551 22.9547C19.832 23.0012 19.75 23.1187 19.75 23.25C19.75 23.3813 19.832 23.4988 19.9551 23.5453L21.5 24.125L22.0797 25.6699C22.1262 25.793 22.2437 25.875 22.375 25.875C22.5063 25.875 22.6238 25.793 22.6703 25.6699L23.25 24.125L24.7949 23.5453C24.918 23.4988 25 23.3813 25 23.25C25 23.1187 24.918 23.0012 24.7949 22.9547L23.25 22.375L22.6703 20.8301C22.6238 20.707 22.5063 20.625 22.375 20.625C22.2437 20.625 22.1262 20.707 22.0797 20.8301L21.5 22.375Z" fill="#001E39"/>
<mask id="path-3-inside-1_984_1194" fill="white">
<path d="M27 30C27 27.2386 29.2386 25 32 25C34.7614 25 37 27.2386 37 30C37 32.7614 34.7614 35 32 35C29.2386 35 27 32.7614 27 30Z"/>
</mask>
<path d="M27 30C27 27.2386 29.2386 25 32 25C34.7614 25 37 27.2386 37 30C37 32.7614 34.7614 35 32 35C29.2386 35 27 32.7614 27 30Z" fill="#00B398"/>
<path d="M27 30M37 30M37 30M27 30M32 25M37 30M32 35M27 30M32 35V33C30.3431 33 29 31.6569 29 30H27H25C25 33.866 28.134 37 32 37V35ZM37 30H35C35 31.6569 33.6569 33 32 33V35V37C35.866 37 39 33.866 39 30H37ZM32 25V27C33.6569 27 35 28.3431 35 30H37H39C39 26.134 35.866 23 32 23V25ZM32 25V23C28.134 23 25 26.134 25 30H27H29C29 28.3431 30.3431 27 32 27V25Z" fill="#002659" mask="url(#path-3-inside-1_984_1194)"/>
<defs>
<linearGradient id="paint0_linear_984_1194" x1="0" y1="0" x2="36" y2="36" gradientUnits="userSpaceOnUse">
<stop stop-color="#C8A064"/>
<stop offset="1" stop-color="#8E6E3E"/>
</linearGradient>
</defs>
</svg>
