<svg viewBox="0 0 16.25 16" fill="none" xmlns="http://www.w3.org/2000/svg" aria-hidden="true">
  <path d="M8.12416 16C6.00242 16 3.96759 15.1571 2.4673 13.6569C0.967012 12.1566 0.124157 10.1217 0.124157 8C0.124157 5.87827 0.967012 3.84344 2.4673 2.34315C3.96759 0.842855 6.00242 0 8.12416 0C10.2459 0 12.2807 0.842855 13.781 2.34315C15.2813 3.84344 16.1242 5.87827 16.1242 8C16.1242 10.1217 15.2813 12.1566 13.781 13.6569C12.2807 15.1571 10.2459 16 8.12416 16ZM8.12416 10C7.85894 10 7.60459 10.1054 7.41705 10.2929C7.22951 10.4804 7.12416 10.7348 7.12416 11C7.12416 11.2652 7.22951 11.5196 7.41705 11.7071C7.60459 11.8946 7.85894 12 8.12416 12C8.38937 12 8.64373 11.8946 8.83126 11.7071C9.0188 11.5196 9.12416 11.2652 9.12416 11C9.12416 10.7348 9.0188 10.4804 8.83126 10.2929C8.64373 10.1054 8.38937 10 8.12416 10ZM8.12416 4C7.55541 4 7.10228 4.48437 7.14291 5.05312L7.37416 8.30313C7.40228 8.69688 7.73041 9 8.12103 9C8.51478 9 8.83978 8.69688 8.86791 8.30313L9.09916 5.05312C9.13978 4.48437 8.68978 4 8.11791 4H8.12416Z" fill="currentColor"/>
</svg>
