<svg viewBox="0 0 11.25 9" fill="none" xmlns="http://www.w3.org/2000/svg" aria-hidden="true">
  <path d="M5.625 0C6.81847 0 7.96307 0.474106 8.80698 1.31802C9.65089 2.16193 10.125 3.30653 10.125 4.5C10.125 5.69347 9.65089 6.83807 8.80698 7.68198C7.96307 8.52589 6.81847 9 5.625 9C4.43153 9 3.28693 8.52589 2.44302 7.68198C1.59911 6.83807 1.125 5.69347 1.125 4.5C1.125 3.30653 1.59911 2.16193 2.44302 1.31802C3.28693 0.474106 4.43153 0 5.625 0ZM5.20312 2.10938V4.5C5.20312 4.64062 5.27344 4.77246 5.39121 4.85156L7.07871 5.97656C7.27207 6.10664 7.53398 6.05391 7.66406 5.85879C7.79414 5.66367 7.74141 5.40352 7.54629 5.27344L6.04688 4.275V2.10938C6.04688 1.87559 5.85879 1.6875 5.625 1.6875C5.39121 1.6875 5.20312 1.87559 5.20312 2.10938Z" fill="currentColor"/>
</svg>
