<svg viewBox="0 0 13.75 11" fill="none" xmlns="http://www.w3.org/2000/svg" aria-hidden="true">
  <path d="M10.841 1.81543C11.0838 1.52324 11.0451 1.08926 10.7529 0.846484C10.4607 0.603711 10.0268 0.642383 9.78398 0.93457L6.875 4.42578L3.96602 0.93457C3.72324 0.642383 3.28926 0.603711 2.99707 0.846484C2.70488 1.08926 2.66621 1.52324 2.90898 1.81543L5.9791 5.5L2.90898 9.18457C2.66621 9.47676 2.70488 9.91074 2.99707 10.1535C3.28926 10.3963 3.72324 10.3576 3.96602 10.0654L6.875 6.57422L9.78398 10.0654C10.0268 10.3576 10.4607 10.3963 10.7529 10.1535C11.0451 9.91074 11.0838 9.47676 10.841 9.18457L7.7709 5.5L10.841 1.81543Z" fill="currentColor"/>
</svg>
