<svg viewBox="0 0 13.75 11" fill="none" xmlns="http://www.w3.org/2000/svg" aria-hidden="true">
  <path d="M6.875 0C8.33369 0 9.73264 0.579463 10.7641 1.61091C11.7955 2.64236 12.375 4.04131 12.375 5.5C12.375 6.95869 11.7955 8.35764 10.7641 9.38909C9.73264 10.4205 8.33369 11 6.875 11C5.41631 11 4.01736 10.4205 2.98591 9.38909C1.95446 8.35764 1.375 6.95869 1.375 5.5C1.375 4.04131 1.95446 2.64236 2.98591 1.61091C4.01736 0.579463 5.41631 0 6.875 0ZM6.35938 2.57812V5.5C6.35938 5.67188 6.44531 5.83301 6.58926 5.92969L8.65176 7.30469C8.88809 7.46367 9.2082 7.39922 9.36719 7.16074C9.52617 6.92227 9.46172 6.6043 9.22324 6.44531L7.39062 5.225V2.57812C7.39062 2.29238 7.16074 2.0625 6.875 2.0625C6.58926 2.0625 6.35938 2.29238 6.35938 2.57812Z" fill="currentColor"/>
</svg>
